HIERARCHY
ROOT pelvis
{
  OFFSET 0 100 0
  CHANNELS 6 Xposition Yposition Zposition Zrotation Xrotation Yrotation
  JOINT pelvis_right_femur
  {
    OFFSET -10.78128 -3.44521 -0.5502486
    CHANNELS 3 Zrotation Xrotation Yrotation
    JOINT right_femur_tibia
    {
      OFFSET -0.8047443 -44.0398 -0.1307829
      CHANNELS 3 Zrotation Xrotation Yrotation
      JOINT right_tibia_foot
      {
        OFFSET 3.006224 -47.83518 -5
        CHANNELS 3 Zrotation Xrotation Yrotation
        End Site
        {
          OFFSET 0 -5 15
        }
      }
    }
  }
  JOINT pelvis_left_femur
  {
    OFFSET 10.78128 -3.44521 -0.5502486
    CHANNELS 3 Zrotation Xrotation Yrotation
    JOINT left_femur_tibia
    {
      OFFSET 0.8047443 -44.0398 -0.1307829
      CHANNELS 3 Zrotation Xrotation Yrotation
      JOINT left_tibia_foot
      {
        OFFSET -4.370144 -48.10324 -4.275266
        CHANNELS 3 Zrotation Xrotation Yrotation
        End Site
        {
          OFFSET 0 -5 15
        }
      }
    }
  }
  JOINT pelvis_spine1
  {
    OFFSET 0 6.468898 -3.129235
    CHANNELS 3 Zrotation Xrotation Yrotation
    JOINT spine1
    {
      OFFSET 0 23.15396 4.99043
      CHANNELS 3 Zrotation Xrotation Yrotation
      JOINT spine2
      {
        OFFSET 0 20.79997 -5.064912
        CHANNELS 3 Zrotation Xrotation Yrotation
        JOINT neck
        {
          OFFSET 0 14.38658 9.616178
          CHANNELS 3 Zrotation Xrotation Yrotation
          End Site
          {
            OFFSET 0 20 0
          }
        }
      }
      JOINT right_manubrium
      {
        OFFSET -5.722621 16.35077 3.967754
        CHANNELS 3 Zrotation Xrotation Yrotation
        JOINT right_clavicle
        {
          OFFSET -13.16364 1.694482 -4.693211
          CHANNELS 3 Zrotation Xrotation Yrotation
          JOINT right_humerus
          {
            OFFSET -28.5034 -0.3100689 -2.792744
            CHANNELS 3 Zrotation Xrotation Yrotation
            JOINT right_radius
            {
              OFFSET -25.15693 0.02248979 -1.271978
              CHANNELS 3 Zrotation Xrotation Yrotation
              End Site
              {
                OFFSET -15 0 0
              }
            }
          }
        }
      }
      JOINT left_manubrium
      {
        OFFSET 5.722621 16.35077 3.967754
        CHANNELS 3 Zrotation Xrotation Yrotation
        JOINT left_clavicle
        {
          OFFSET 13.16364 1.694482 -4.693211
          CHANNELS 3 Zrotation Xrotation Yrotation
          JOINT left_humerus
          {
            OFFSET 29.39168 -1.063119 -2.237045
            CHANNELS 3 Zrotation Xrotation Yrotation
            JOINT left_radius
            {
              OFFSET 24.59957 -0.9528479 0.9047498
              CHANNELS 3 Zrotation Xrotation Yrotation
              End Site
              {
                OFFSET 15 -0 -0
              }
            }
          }
        }
      }
    }
  }
}
MOTION
Frames: 11
Frame Time: 0.0416666666667
37.38049 100.7138 254.5719 2.162601 -8.152139 -2.400018 -1.270913 25.22238 8.492115 -0 21.15951 -0 7.927039 -13.6365 0.6592798 -0.689647 -26.32684 -5.999722 -0 24.69783 -0 -7.593916 -5.532897 19.1229 -1.097209 -1.021325 10.13266 -2.338548 9.567724 -1.591802 2.655298 21.74902 4.856669 1.481807 -14.72517 7.42986 0.9525945 -22.17755 11.02004 79.89548 21.0228 -3.904107 -0 0 28.78322 -26.59808 13.7803 14.05714 4.312393 -12.69634 -2.845754 -94.74312 22.39373 27.9245 0 0 -7.810449 -3.752001 5.752062 17.96386
38.55352 100.5906 261.9999 2.50055 -8.141984 -2.51716 -2.456617 24.92525 8.092559 -0 27.85768 -0 8.446444 -11.12105 0.009459475 -2.30984 -23.48012 -7.200673 -0 25.26331 -0 -7.55992 -5.706962 18.60108 -1.635055 -1.768099 10.03056 -2.377604 9.280974 -1.597321 2.819407 21.89453 4.820313 1.375107 -14.63572 7.692568 1.120544 -21.34244 10.60252 80.56253 20.98905 -4.607156 -0 0 27.59334 -26.36272 13.70594 13.76247 4.131866 -12.14192 -2.842213 -94.3906 22.72352 27.58632 0 0 -7.23901 -3.832709 5.811044 18.21825
39.66592 101.1227 269.3306 2.886945 -8.452738 -2.138349 -3.328248 23.07461 7.336003 -0 35.7101 -0 8.6118 -8.700346 -1.190927 -3.916378 -19.55024 -8.186407 -0 26.12674 -0 -7.392721 -6.409295 18.07524 -2.210992 -2.158423 9.640883 -2.343325 9.150393 -1.678786 2.898686 22.18106 4.823461 1.224111 -14.47698 7.946507 1.547749 -20.21984 10.32464 81.56739 21.21482 -5.918648 -0 0 25.45791 -25.88972 13.73883 13.20346 3.971827 -12.08035 -2.919492 -93.48504 23.16043 26.30485 0 0 -7.39718 -3.699228 5.98728 18.15959
40.70646 102.1968 276.3117 3.199793 -9.049224 -1.208862 -3.512135 19.19082 6.317207 -0 43.99028 -0 8.378931 -7.09551 -2.81181 -5.26464 -14.4964 -8.900804 -0 26.47311 -0 -7.06962 -7.708269 17.49987 -2.626004 -2.006596 8.808496 -2.261427 9.146559 -1.925812 2.841728 22.59719 4.900549 0.9961804 -14.24113 8.195387 2.124267 -19.02699 10.19451 82.82866 21.66163 -7.58685 -0 0 22.78289 -25.20032 13.85134 12.48504 3.796868 -12.52922 -3.101159 -92.02571 23.66843 24.07301 0 0 -8.228833 -3.331906 6.276774 17.78753
41.64858 103.6534 282.7882 3.287855 -9.763422 -0.05366537 -3.10214 13.38554 5.187092 -0 50.50743 -0 7.789392 -6.655163 -4.38975 -6.076788 -8.735969 -9.351418 -0 25.8083 -0 -6.757234 -9.176867 16.89316 -2.782075 -1.421098 7.597944 -2.088895 9.166622 -2.365006 2.666212 23.10067 5.059274 0.7053751 -13.91761 8.456867 2.661565 -17.92126 10.15857 84.24632 22.23593 -9.393098 -0 0 20.05828 -24.36305 13.99742 11.74489 3.667429 -13.34651 -3.392668 -90.16436 24.16671 21.04039 0 0 -9.630266 -2.757182 6.6634 17.15087
42.49723 105.236 288.7458 3.197416 -10.26219 1.148965 -2.39616 6.506606 4.158413 -0 53.53944 -0 6.949414 -6.856545 -5.628519 -6.386741 -2.883201 -9.668359 -0 24.10004 -0 -6.571238 -10.52567 16.22025 -2.750303 -0.7434274 6.162347 -1.820837 9.101316 -3.032707 2.48925 23.61246 5.245017 0.4171118 -13.5365 8.750592 2.915043 -16.86443 10.05031 85.79954 22.80819 -11.28274 -0 0 17.65603 -23.45656 14.10539 11.07837 3.690801 -14.35098 -3.741964 -88.1047 24.576 17.44494 0 0 -11.53611 -2.030208 7.132064 16.28572
43.27436 106.5924 294.2801 3.060737 -10.29913 2.433517 -1.752606 -0.4880618 3.365689 -0 52.35722 -0 5.98291 -7.062548 -6.48518 -6.355001 2.572424 -9.965935 -0 21.64309 -0 -6.518538 -11.74537 15.43523 -2.681825 -0.2397681 4.696744 -1.475508 8.874277 -3.922192 2.424557 24.04884 5.376469 0.1963697 -13.14278 9.057192 2.747114 -15.79479 9.738817 87.40213 23.26997 -13.23806 -0 0 15.71321 -22.5531 14.1176 10.51055 3.946575 -15.42391 -4.07794 -86.00184 24.85697 13.52256 0 0 -13.89195 -1.20573 7.67047 15.20664
43.95769 107.3878 299.5623 2.982639 -9.880562 3.79618 -1.515656 -6.938919 2.812659 -0 47.19864 -0 4.947556 -7.066507 -7.10288 -6.148549 7.411071 -10.2667 -0 18.95563 -0 -6.528063 -13.01555 14.54128 -2.722605 0.03553426 3.399224 -1.077319 8.468246 -4.940896 2.517444 24.34578 5.381796 0.07657533 -12.78728 9.310624 2.204303 -14.71388 9.227715 88.85976 23.57882 -15.20335 -0 0 14.11737 -21.70277 14.01555 9.994659 4.44531 -16.52328 -4.343596 -83.94017 25.0089 9.478971 0 0 -16.61031 -0.320593 8.268678 13.92387
44.56919 107.476 304.915 3.059895 -9.200023 5.177205 -1.724171 -12.54158 2.442107 -0 39.15904 -0 3.804169 -7.09798 -7.638661 -5.975042 11.68068 -10.49682 -0 16.69898 -0 -6.543579 -14.44214 13.62159 -2.952762 0.1187156 2.36915 -0.6799372 7.957376 -5.925809 2.748687 24.48141 5.233058 0.05646557 -12.55027 9.454905 1.462313 -13.59176 8.652595 90.07434 23.75907 -17.14253 -0 0 12.62063 -20.89779 13.82151 9.44059 5.117943 -17.6078 -4.502188 -82.01266 25.04402 5.539843 0 0 -19.5267 0.6120387 8.917304 12.48593
45.11602 106.8834 310.4312 3.271592 -8.454964 6.3846 -2.213907 -17.17462 2.053413 -0 29.8783 -0 2.540175 -7.434408 -8.171684 -5.92782 15.42341 -10.58801 -0 15.33566 -0 -6.56696 -15.97085 12.76181 -3.300722 0.1307134 1.696364 -0.3204522 7.441603 -6.657761 3.034844 24.48985 4.977855 0.0985812 -12.46459 9.479537 0.7643806 -12.44651 8.198448 91.05523 23.87195 -18.98042 -0 0 10.99415 -20.06736 13.57758 8.754549 5.834025 -18.68001 -4.525802 -80.30273 24.97617 1.894618 0 0 -22.41228 1.580536 9.589594 10.97481
45.57179 105.7855 316.069 3.494808 -7.785408 7.211074 -2.623781 -20.73421 1.532694 -0 21.10386 -0 1.184092 -8.174354 -8.720339 -5.968072 18.62563 -10.53299 -0 15.13895 -0 -6.645607 -17.3888 12.04116 -3.615006 0.1691215 1.366003 -0.007251371 6.99239 -7.029765 3.291679 24.44471 4.686025 0.161398 -12.51372 9.405129 0.2923763 -11.37076 7.974229 91.82659 23.97829 -20.5952 -0 0 9.165053 -19.15094 13.32163 7.905199 6.456976 -19.71754 -4.415974 -78.88832 24.83447 -1.255993 0 0 -24.98407 2.551189 10.24915 9.494078
